HIERARCHY
ROOT Hips
{
	OFFSET 0.000000 0.000000 0.000000 
	CHANNELS 6 Xposition Yposition Zposition Zrotation Yrotation Xrotation
	JOINT LeftUpLeg
	{
		OFFSET 1.363060 -1.794630 0.839290 
		CHANNELS 3 Zrotation Yrotation Xrotation
		JOINT LeftLeg
		{
			OFFSET 2.448110 -6.726130 0.000000 
			CHANNELS 3 Zrotation Yrotation Xrotation
			JOINT LeftFoot
			{
				OFFSET 2.562200 -7.039590 0.000000 
				CHANNELS 3 Zrotation Yrotation Xrotation
				JOINT LeftToeBase
				{
					OFFSET 0.157640 -0.433110 2.322550 
					CHANNELS 3 Zrotation Yrotation Xrotation
					End Site
					{
						OFFSET 0.000000 0.000000 0.000000 
					}
				}
			}
		}
	}
	JOINT RightUpLeg
	{
		OFFSET -1.305520 -1.794630 0.839290 
		CHANNELS 3 Zrotation Yrotation Xrotation
		JOINT RightLeg
		{
			OFFSET -2.542530 -6.985550 0.000000 
			CHANNELS 3 Zrotation Yrotation Xrotation
			JOINT RightFoot
			{
				OFFSET -2.568260 -7.056230 0.000000 
				CHANNELS 3 Zrotation Yrotation Xrotation
				JOINT RightToeBase
				{
					OFFSET -0.164730 -0.452590 2.363150 
					CHANNELS 3 Zrotation Yrotation Xrotation
					End Site
					{
						OFFSET 0.000000 0.000000 0.000000 
					}
				}
			}
		}
	}
	JOINT Spine
	{
		OFFSET 0.028270 2.035590 -0.193380 
		CHANNELS 3 Zrotation Yrotation Xrotation
		JOINT Spine1
		{
			OFFSET 0.056720 2.048850 -0.042750 
			CHANNELS 3 Zrotation Yrotation Xrotation
			JOINT Neck1
			{
				OFFSET -0.054170 1.746240 0.172020 
				CHANNELS 3 Zrotation Yrotation Xrotation
				JOINT Head
				{
					OFFSET 0.104070 1.761360 -0.123970 
					CHANNELS 3 Zrotation Yrotation Xrotation
					End Site
					{
						OFFSET 0.000000 0.000000 0.000000 
					}
				}
			}
			JOINT LeftArm
			{
				OFFSET 3.362410 1.200890 -0.311210 
				CHANNELS 3 Zrotation Yrotation Xrotation
				JOINT LeftForeArm
				{
					OFFSET 4.983000 -0.000000 -0.000000 
					CHANNELS 3 Zrotation Yrotation Xrotation
					JOINT LeftHand
					{
						OFFSET 3.483560 -0.000000 -0.000000 
						CHANNELS 3 Zrotation Yrotation Xrotation
						JOINT LeftHandIndex1
						{
							OFFSET 0.715260 -0.000000 -0.000000 
							CHANNELS 3 Zrotation Yrotation Xrotation
							End Site
							{
								OFFSET 0.000000 0.000000 0.000000 
							}
						}
					}
				}
			}
			JOINT RightArm
			{
				OFFSET -3.136600 1.374050 -0.404650 
				CHANNELS 3 Zrotation Yrotation Xrotation
				JOINT RightForeArm
				{
					OFFSET -5.241900 -0.000000 -0.000000 
					CHANNELS 3 Zrotation Yrotation Xrotation
					JOINT RightHand
					{
						OFFSET -3.444170 -0.000000 -0.000000 
						CHANNELS 3 Zrotation Yrotation Xrotation
						JOINT RightHandIndex1
						{
							OFFSET -0.622530 -0.000000 -0.000000 
							CHANNELS 3 Zrotation Yrotation Xrotation
							End Site
							{
								OFFSET 0.000000 0.000000 0.000000 
							}
						}
					}
				}
			}
		}
	}
}
MOTION
Frames: 9
Frame Time: 0.041667
0.227111 17.702486 8.352040 -4.126455 15.594356 69.051037 -39.722493 -11.687872 -86.302914 -2.388018 3.831898 3.353640 3.790464 -30.185232 39.604551 0.973100 6.280000 17.599000 -9.413819 26.963851 -68.102781 2.413209 -3.601989 -1.493383 12.236619 -43.985288 -8.405671 -0.000800 -0.181800 0.499500 5.968181 1.037637 42.012280 -14.482762 0.997709 -20.612849 30.700152 -7.849905 -37.078948 9.663500 -8.590700 -4.913100 -42.029832 0.155000 54.669741 122.216617 -53.334532 -92.003306 -1.354831 -0.445280 -26.896446 -7.125000 0.000000 0.000000 -48.126066 19.062335 -127.186692 -9.105223 20.207407 -3.228024 0.146769 5.653031 -14.763181 7.125000 0.000000 0.000000 
0.234048 17.709107 8.359922 -4.270856 15.906037 68.792802 -39.125738 -11.532743 -86.169811 -2.390013 3.901191 3.527352 3.723296 -30.222414 39.301539 0.938100 6.169400 17.276600 -8.891591 27.112723 -67.750337 2.436824 -3.570348 -1.535807 12.310214 -44.141386 -8.439280 -0.000400 -0.123500 0.339400 5.457872 0.823289 41.914472 -14.798409 0.740353 -20.621370 31.726782 -7.874119 -35.932850 9.826200 -8.502200 -4.353700 -41.836627 0.490016 53.927714 122.311962 -53.317055 -92.098287 -1.346624 -0.444120 -26.924532 -7.125000 0.000000 0.000000 -47.776247 19.184822 -129.644456 -8.779221 19.631033 -3.053032 0.484377 5.731654 -13.586009 7.125000 0.000000 0.000000 
0.236675 17.716674 8.373900 -4.268200 15.822453 68.706625 -38.972618 -11.427862 -86.011666 -2.391151 3.911042 3.574302 3.725477 -30.100428 39.108539 0.930300 6.144200 17.203400 -8.938152 27.173868 -67.642786 2.435870 -3.570130 -1.532774 12.359602 -44.251927 -8.455127 -0.000200 -0.093700 0.257500 5.512044 0.736709 41.893508 -14.817802 0.683401 -20.660752 30.981367 -8.300675 -36.005871 9.465400 -8.715500 -4.422400 -42.062490 0.495588 53.792527 122.361686 -53.306029 -92.133171 -1.347115 -0.442498 -26.837935 -7.125000 0.000000 0.000000 -47.589575 19.167912 -131.478556 -8.410299 19.036558 -2.867374 0.615241 5.761431 -12.173903 7.125000 0.000000 0.000000 
0.235204 17.726238 8.395234 -4.057324 15.259563 68.786252 -39.377720 -11.362810 -85.728891 -2.386687 3.840260 3.432588 3.759967 -29.868887 38.914147 0.941900 6.181500 17.311900 -9.618945 27.099485 -67.716100 2.409516 -3.600028 -1.483940 12.395041 -44.292791 -8.595744 -0.001000 -0.202000 0.555000 5.893135 0.828803 41.811762 -14.639161 0.857124 -20.644623 30.733183 -8.558118 -36.428408 9.489100 -8.896000 -4.583200 -42.425246 0.176671 54.197975 122.223604 -53.338252 -92.015186 -1.354086 -0.428791 -26.583472 -7.125000 0.000000 0.000000 -47.349136 18.970944 -132.445583 -8.001103 18.363417 -2.651504 0.682404 5.688150 -10.488292 7.125000 0.000000 0.000000 
0.228583 17.737483 8.424240 -3.768611 14.167102 68.960227 -40.319756 -11.263882 -85.355958 -2.373813 3.706981 3.126362 3.777347 -29.647895 38.641487 0.950400 6.208400 17.390400 -10.894816 26.963033 -67.956972 2.361270 -3.675351 -1.338314 12.423895 -44.281372 -8.867874 -0.005000 -0.457100 1.255900 5.024587 0.858283 41.939172 -14.174462 0.906909 -20.680158 30.726384 -8.619871 -36.325755 9.419600 -8.912700 -4.523900 -42.446780 0.030690 53.732289 122.123433 -53.377774 -91.948833 -1.355326 -0.435465 -26.381355 -7.125000 0.000000 0.000000 -47.443392 19.305481 -133.895262 -7.828518 18.082722 -2.544821 0.699581 5.574528 -9.201311 7.125000 0.000000 0.000000 
0.225745 17.746731 8.438954 -3.804354 14.032104 68.702815 -40.219705 -10.930488 -85.055670 -2.371632 3.672290 3.101972 3.792477 -29.500557 38.474310 0.959800 6.238200 17.477200 -10.957150 27.096850 -67.792632 2.367191 -3.707480 -1.251426 12.460336 -44.316183 -9.018954 -0.008100 -0.581300 1.597400 5.416607 0.967631 41.913010 -14.166472 1.020776 -20.709014 31.153763 -8.608501 -36.543192 9.731900 -8.917700 -4.531900 -42.891360 -0.270052 54.078508 121.931232 -53.429796 -91.790905 -1.366193 -0.427960 -26.107996 -7.125000 0.000000 0.000000 -47.647590 19.721687 -134.282000 -7.722735 17.930976 -2.457631 0.760431 5.465944 -7.758265 7.125000 0.000000 0.000000 
0.231841 17.754088 8.431702 -4.364211 15.197040 67.928930 -38.604386 -10.349906 -84.943411 -2.385743 3.800058 3.498503 3.810533 -29.438274 38.443855 0.965400 6.255900 17.528900 -9.238122 27.590086 -66.984757 2.442852 -3.635057 -1.335124 12.519139 -44.484249 -8.802627 -0.002100 -0.292900 0.804800 5.345015 0.890741 41.999819 -14.784220 0.770522 -20.625841 32.210275 -8.542704 -35.761487 9.962500 -8.808400 -4.085200 -42.826430 -0.331253 53.562166 121.709508 -53.513149 -91.638440 -1.373473 -0.420781 -26.103510 -7.125000 0.000000 0.000000 -48.152429 20.607617 -134.921742 -7.691844 17.992654 -2.429745 1.219735 5.693995 -7.200626 7.125000 0.000000 0.000000 
0.226796 17.762706 8.445470 -4.472643 15.018070 67.713005 -38.477859 -9.973547 -84.721349 -2.383642 3.749364 3.437352 3.857488 -29.272284 38.420957 0.980100 6.301900 17.663000 -9.353513 27.740292 -66.933202 2.450798 -3.689787 -1.194437 12.525377 -44.429800 -9.046126 -0.004700 -0.442400 1.215600 5.279457 1.056697 42.086307 -14.821291 0.841914 -20.649863 31.360342 -9.096051 -36.146434 9.838200 -9.022900 -4.235400 -43.109086 -0.722970 53.687171 121.493288 -53.569771 -91.468293 -1.385779 -0.424152 -26.123129 -7.125000 0.000000 0.000000 -48.684393 21.399853 -133.198738 -7.805147 18.334230 -2.467575 0.792460 5.573574 -8.929905 7.125000 0.000000 0.000000 
0.217548 17.769222 8.459342 -4.655823 14.767877 67.529243 -38.357271 -9.539271 -84.573624 -2.383094 3.685847 3.349779 3.947126 -29.001489 38.468683 1.014600 6.408500 17.974300 -9.529109 27.945626 -66.948983 2.461139 -3.752261 -1.037226 12.499403 -44.259437 -9.480055 -0.015800 -0.812200 2.232200 4.387795 1.130156 42.294078 -14.714777 0.765024 -20.657074 33.094561 -8.778690 -35.060712 10.182500 -8.813900 -3.624700 -42.988432 -0.782362 53.071654 121.377916 -53.625805 -91.391777 -1.393393 -0.427737 -26.116756 -7.125000 0.000000 0.000000 -49.635358 22.551766 -132.987996 -7.948299 18.725998 -2.485532 0.582946 5.375348 -9.858763 7.125000 0.000000 0.000000 
